<svg width="96" height="96" viewBox="0 0 96 96" fill="none" xmlns="http://www.w3.org/2000/svg">
<g clip-path="url(#clip0_2002_6434)">
<path d="M46.7634 28.8864C44.8833 28.3741 42.7501 28.6139 41.0741 29.4454C39.6741 30.1334 38.5322 31.1475 37.7773 32.3624C37.7581 32.3699 37.7378 32.3719 37.7186 32.3794C37.734 32.3842 37.7454 32.3898 37.7611 32.3964C37.7454 32.4226 37.7298 32.4488 37.7161 32.4746C37.7064 32.4668 37.6966 32.459 37.6872 32.453C37.7218 32.342 37.7674 32.2347 37.8063 32.1248C38.7657 30.813 39.7269 29.6844 40.7835 28.7968C41.873 27.8759 43.0372 27.2714 44.323 26.9377C45.6085 26.6021 47.0385 26.5272 48.5657 26.5942C50.0951 26.6511 51.69 26.8677 53.4493 26.962C52.2561 25.766 50.7764 24.8971 49.0937 24.3492C47.4201 23.817 45.4744 23.6324 43.5607 24.1359C41.643 24.6189 39.9218 25.8631 38.9223 27.376C38.6035 27.8582 38.3445 28.362 38.1392 28.8767C38.1152 28.599 38.1012 28.3193 38.0443 28.042C37.7074 26.3156 36.5822 24.6212 34.9791 23.5806C33.3843 22.519 31.4875 22.093 29.7102 22.0775C27.9183 22.0725 26.1854 22.4313 24.5956 23.1845C26.2824 23.6349 27.8622 23.924 29.3201 24.3426C30.776 24.75 32.088 25.2582 33.16 25.9688C34.2336 26.6771 35.0863 27.6015 35.7438 28.8009C36.2749 29.7595 36.6777 30.8566 37.0184 32.0718C36.5078 30.8638 35.6155 29.7961 34.4536 28.9711C32.978 27.9178 30.9272 27.3761 28.9673 27.6158C27.0032 27.833 25.2525 28.7058 23.8831 29.8037C22.509 30.92 21.4403 32.2643 20.7541 33.8084C22.3599 33.0851 23.7725 32.3115 25.1801 31.7071C26.5784 31.0967 27.94 30.6519 29.261 30.5029C30.5794 30.3506 31.882 30.4952 33.2298 30.9637C33.9315 31.2034 34.6342 31.524 35.3452 31.8991C34.6804 31.9619 34.0058 32.2005 33.4682 32.6065C32.7507 33.1298 32.2862 33.8544 32.0263 34.5806C31.7717 35.3136 31.6916 36.0636 31.8124 36.8064C32.2591 36.1722 32.6172 35.5607 33.0187 35.0144C33.4119 34.4677 33.8332 33.993 34.3126 33.6388C34.7903 33.2868 35.3392 33.0489 35.9863 32.9257C36.2488 32.8738 36.5332 32.8506 36.8204 32.8308C36.3927 33.6624 36.0149 34.5175 35.6938 35.3888C34.9488 37.4256 34.4499 39.5413 34.1018 41.6689C33.7537 43.7964 33.2777 48.1078 33.2777 48.1078C33.2777 48.1078 32.4137 53.2128 32.5967 55.4636L39.3337 55.4636C38.7866 53.6302 37.6636 49.7794 37.327 47.8054C36.9902 45.8082 36.7578 43.7853 36.6687 41.7565C36.5832 39.725 36.6396 37.68 36.9427 35.6519C37.0764 34.7718 37.2699 33.8918 37.5152 33.0233C37.683 32.9508 37.8455 32.8831 38.0096 32.8132C38.0532 32.8146 38.0941 32.8126 38.1396 32.8136C38.1268 32.8006 38.1104 32.7902 38.096 32.7794C38.2009 32.7343 38.3078 32.6888 38.411 32.6459C38.8619 32.825 39.286 33.015 39.6437 33.2466C40.181 33.5872 40.5791 33.9987 40.8632 34.4937C41.1465 34.9851 41.3218 35.3797 41.3218 35.3797L41.9953 36.8361L42.1664 36.1055C42.3424 35.3543 42.4586 34.5457 42.1225 33.8512C41.8774 33.3446 41.5906 33.1496 41.5906 33.1496C41.5906 33.1496 40.933 32.541 40.1272 32.3076C39.9547 32.2573 39.7813 32.2246 39.605 32.1982C40.3751 31.9298 41.1253 31.7193 41.8611 31.585C43.2867 31.3137 44.6007 31.3555 45.8697 31.6921C47.1384 32.0269 48.385 32.6578 49.6351 33.4582C50.8947 34.2549 52.1237 35.2159 53.5534 36.1581C53.2018 34.5389 52.4319 33.0631 51.3126 31.7679C50.1941 30.488 48.6547 29.3811 46.7634 28.8864Z" fill="#584528"/>
</g>
<path d="M10.6686 54.2707C9.55022 54.2707 8.69374 53.9522 8.09915 53.3151C7.51873 52.6781 7.22852 51.7791 7.22852 50.6183V42.6339C7.22852 41.473 7.51873 40.5741 8.09915 39.937C8.69374 39.3 9.55022 38.9814 10.6686 38.9814C11.787 38.9814 12.6364 39.3 13.2168 39.937C13.8114 40.5741 14.1087 41.473 14.1087 42.6339V44.2053H11.9002V42.4852C11.9002 41.565 11.5109 41.105 10.7323 41.105C9.95368 41.105 9.56437 41.565 9.56437 42.4852V50.7881C9.56437 51.6942 9.95368 52.1472 10.7323 52.1472C11.5109 52.1472 11.9002 51.6942 11.9002 50.7881V48.516H14.1087V50.6183C14.1087 51.7791 13.8114 52.6781 13.2168 53.3151C12.6364 53.9522 11.787 54.2707 10.6686 54.2707Z" fill="#008542"/>
<path d="M17.9482 39.1938H21.1123L23.5331 54.0583H21.1972L20.7725 51.1067V51.1491H18.1181L17.6934 54.0583H15.5274L17.9482 39.1938ZM20.4965 49.1318L19.4559 41.7845H19.4135L18.3942 49.1318H20.4965Z" fill="#008542"/>
<path d="M25.3034 39.1938H27.6392V51.9348H31.4828V54.0583H25.3034V39.1938Z" fill="#008542"/>
<path d="M41.3159 39.1938H47.4953V41.3173H43.6518V45.4581H46.6672V47.5816H43.6518V54.0583H41.3159V39.1938Z" fill="#008542"/>
<path d="M52.6289 54.2707C51.4822 54.2707 50.6045 53.9451 49.9958 53.2939C49.387 52.6427 49.0827 51.7225 49.0827 50.5333V42.7188C49.0827 41.5297 49.387 40.6095 49.9958 39.9583C50.6045 39.307 51.4822 38.9814 52.6289 38.9814C53.7756 38.9814 54.6533 39.307 55.2621 39.9583C55.8708 40.6095 56.1752 41.5297 56.1752 42.7188V50.5333C56.1752 51.7225 55.8708 52.6427 55.2621 53.2939C54.6533 53.9451 53.7756 54.2707 52.6289 54.2707ZM52.6289 52.1472C53.4359 52.1472 53.8393 51.6588 53.8393 50.682V42.5702C53.8393 41.5934 53.4359 41.105 52.6289 41.105C51.822 41.105 51.4185 41.5934 51.4185 42.5702V50.682C51.4185 51.6588 51.822 52.1472 52.6289 52.1472Z" fill="#008542"/>
<path d="M58.3919 39.1938H61.8532C63.0566 39.1938 63.9343 39.4769 64.4864 40.0432C65.0385 40.5953 65.3146 41.4518 65.3146 42.6126V43.5258C65.3146 45.0688 64.8049 46.0456 63.7856 46.4562V46.4987C64.3519 46.6685 64.7483 47.0154 64.9748 47.5392C65.2155 48.063 65.3358 48.7637 65.3358 49.6415V52.2534C65.3358 52.6781 65.3499 53.0249 65.3783 53.2939C65.4066 53.5487 65.4774 53.8035 65.5906 54.0583H63.2123C63.1273 53.8177 63.0707 53.5912 63.0424 53.3788C63.0141 53.1665 62.9999 52.7842 62.9999 52.2321V49.514C62.9999 48.8345 62.8867 48.3603 62.6602 48.0913C62.4478 47.8223 62.0727 47.6878 61.5347 47.6878H60.7278V54.0583H58.3919V39.1938ZM61.5772 45.5643C62.0443 45.5643 62.3912 45.444 62.6177 45.2033C62.8584 44.9627 62.9787 44.5592 62.9787 43.9929V42.8462C62.9787 42.3083 62.8796 41.919 62.6814 41.6783C62.4974 41.4376 62.2001 41.3173 61.7895 41.3173H60.7278V45.5643H61.5772Z" fill="#008542"/>
<path d="M67.5935 39.1938H70.5239L72.7961 48.0913H72.8386V39.1938H74.9196V54.0583H72.52L69.717 43.2072H69.6745V54.0583H67.5935V39.1938Z" fill="#008542"/>
<path d="M77.2928 39.1938H79.6286V54.0583H77.2928V39.1938Z" fill="#008542"/>
<path d="M83.8201 39.1938H86.9841L89.4049 54.0583H87.069L86.6443 51.1067V51.1491H83.99L83.5653 54.0583H81.3993L83.8201 39.1938ZM86.3683 49.1318L85.3278 41.7845H85.2853L84.266 49.1318H86.3683Z" fill="#008542"/>
<path d="M29.6393 60.7502H27.1973V58.6267H34.4172V60.7502H31.9752V73.4912H29.6393V60.7502Z" fill="#584528"/>
<path d="M36.1852 58.6267H39.6465C40.8498 58.6267 41.7275 58.9098 42.2796 59.4761C42.8318 60.0282 43.1078 60.8847 43.1078 62.0455V62.9586C43.1078 64.5017 42.5982 65.4785 41.5789 65.8891V65.9315C42.1452 66.1014 42.5415 66.4482 42.768 66.972C43.0087 67.4958 43.129 68.1966 43.129 69.0743V71.6862C43.129 72.1109 43.1432 72.4578 43.1715 72.7267C43.1998 72.9816 43.2706 73.2364 43.3839 73.4912H41.0055C40.9206 73.2505 40.864 73.024 40.8357 72.8117C40.8073 72.5993 40.7932 72.2171 40.7932 71.665V68.9469C40.7932 68.2674 40.6799 67.7931 40.4534 67.5242C40.2411 67.2552 39.8659 67.1207 39.328 67.1207H38.521V73.4912H36.1852V58.6267ZM39.3704 64.9972C39.8376 64.9972 40.1844 64.8768 40.411 64.6362C40.6516 64.3955 40.7719 63.9921 40.7719 63.4258V62.2791C40.7719 61.7411 40.6729 61.3518 40.4747 61.1112C40.2906 60.8705 39.9933 60.7502 39.5828 60.7502H38.521V64.9972H39.3704Z" fill="#584528"/>
<path d="M45.3868 58.6267H51.7573V60.7502H47.7226V64.6787H50.9291V66.8022H47.7226V71.3677H51.7573V73.4912H45.3868V58.6267Z" fill="#584528"/>
<path d="M53.7381 58.6267H60.1086V60.7502H56.074V64.6787H59.2805V66.8022H56.074V71.3677H60.1086V73.4912H53.7381V58.6267Z" fill="#584528"/>
<path d="M65.1676 73.7036C64.035 73.7036 63.1785 73.385 62.5981 72.748C62.0177 72.0968 61.7275 71.1695 61.7275 69.9662V69.1168H63.9359V70.1361C63.9359 71.0987 64.3394 71.5801 65.1463 71.5801C65.5427 71.5801 65.84 71.4668 66.0382 71.2403C66.2505 70.9996 66.3567 70.6174 66.3567 70.0936C66.3567 69.4707 66.2152 68.9257 65.932 68.4585C65.6489 67.9772 65.1251 67.4038 64.3606 66.7385C63.398 65.8891 62.7255 65.1246 62.3433 64.4451C61.9611 63.7514 61.7699 62.9728 61.7699 62.1092C61.7699 60.9342 62.0672 60.0282 62.6618 59.3911C63.2564 58.7399 64.12 58.4143 65.2525 58.4143C66.3709 58.4143 67.2132 58.7399 67.7795 59.3911C68.3599 60.0282 68.6501 60.9484 68.6501 62.1517V62.7675H66.4417V62.003C66.4417 61.4934 66.3426 61.1253 66.1444 60.8988C65.9462 60.6581 65.656 60.5378 65.2737 60.5378C64.4951 60.5378 64.1058 61.0121 64.1058 61.9606C64.1058 62.4985 64.2474 63.0011 64.5305 63.4683C64.8278 63.9354 65.3587 64.5017 66.1231 65.1671C67.0999 66.0165 67.7724 66.788 68.1405 67.4817C68.5085 68.1754 68.6926 68.9894 68.6926 69.9237C68.6926 71.1412 68.3882 72.0755 67.7795 72.7267C67.1849 73.378 66.3143 73.7036 65.1676 73.7036Z" fill="#584528"/>
<mask id="path-4-inside-1_2002_6434" fill="white">
<path d="M84.6501 37.3641C82.561 29.3133 77.8633 22.1816 71.2915 17.0836C64.7196 11.9856 56.6438 9.20858 48.3264 9.18671C40.009 9.16484 31.9188 11.8993 25.3202 16.9627C18.7216 22.0261 13.9865 29.133 11.8551 37.1727L13.0716 37.4952C15.1317 29.7244 19.7084 22.8552 26.0863 17.9612C32.4642 13.0671 40.2839 10.4241 48.3231 10.4453C56.3623 10.4664 64.168 13.1505 70.52 18.078C76.8721 23.0055 81.4126 29.8987 83.4319 37.6802L84.6501 37.3641Z"/>
</mask>
<path d="M84.6501 37.3641C82.561 29.3133 77.8633 22.1816 71.2915 17.0836C64.7196 11.9856 56.6438 9.20858 48.3264 9.18671C40.009 9.16484 31.9188 11.8993 25.3202 16.9627C18.7216 22.0261 13.9865 29.133 11.8551 37.1727L13.0716 37.4952C15.1317 29.7244 19.7084 22.8552 26.0863 17.9612C32.4642 13.0671 40.2839 10.4241 48.3231 10.4453C56.3623 10.4664 64.168 13.1505 70.52 18.078C76.8721 23.0055 81.4126 29.8987 83.4319 37.6802L84.6501 37.3641Z" stroke="#B71234" stroke-width="6" mask="url(#path-4-inside-1_2002_6434)"/>
<mask id="path-5-inside-2_2002_6434" fill="white">
<path d="M11.4538 56.9616C13.4716 65.1902 18.2073 72.4971 24.8944 77.6995C31.5814 82.9019 39.8285 85.6953 48.3007 85.6277C56.7728 85.56 64.9742 82.6351 71.5773 77.3265C78.1803 72.0179 82.7987 64.6363 84.6847 56.3765L83.4577 56.0963C81.6348 64.0799 77.1709 71.2146 70.7887 76.3456C64.4064 81.4767 56.4794 84.3037 48.2906 84.3691C40.1018 84.4346 32.1306 81.7346 25.6672 76.7062C19.2038 71.6778 14.6265 64.6153 12.6762 56.6619L11.4538 56.9616Z"/>
</mask>
<path d="M11.4538 56.9616C13.4716 65.1902 18.2073 72.4971 24.8944 77.6995C31.5814 82.9019 39.8285 85.6953 48.3007 85.6277C56.7728 85.56 64.9742 82.6351 71.5773 77.3265C78.1803 72.0179 82.7987 64.6363 84.6847 56.3765L83.4577 56.0963C81.6348 64.0799 77.1709 71.2146 70.7887 76.3456C64.4064 81.4767 56.4794 84.3037 48.2906 84.3691C40.1018 84.4346 32.1306 81.7346 25.6672 76.7062C19.2038 71.6778 14.6265 64.6153 12.6762 56.6619L11.4538 56.9616Z" stroke="#B71234" stroke-width="6" mask="url(#path-5-inside-2_2002_6434)"/>
<defs>
<clipPath id="clip0_2002_6434">
<rect width="33.919" height="33.919" fill="white" transform="translate(20.1387 20.1394)"/>
</clipPath>
</defs>
</svg>
